<svg xmlns="http://www.w3.org/2000/svg" viewBox="0 0 1021 1031"><defs><style>.cls-1{stroke:#000;stroke-miterlimit:10;stroke-width:4px;}</style></defs><title>maze01_1</title><g id="Layer_2" data-name="Layer 2"><g id="Layer_2-2" data-name="Layer 2"><polygon class="cls-1" points="875 2 875 19 1013 19 1013 1023 9 1023 9 19 819 19 819 2 814 2 814 13 2 13 2 1029 1019 1029 1019 13 881 13 881 2 875 2"/><polygon class="cls-1" points="142 61 142 56 62 56 62 101 140 101 140 154 9.5 154 9.5 158.86 255 158.86 255 103 252 103 252 154 144 154 144 97 66 97 66 61 142 61"/><polygon class="cls-1" points="474 63 474 159 405 159 405 20 409.28 20 409.28 154 470 154 470 63 474 63"/><rect class="cls-1" x="547" y="20" width="4" height="128"/><polygon class="cls-1" points="86 358 162 358 162 291 333 291 333 66 202 66 202 103 197 103 197 61 338 61 338 205 550 205 550 393 960 393 960 397 929 397 929 538 1011 538 1011 543 925 543 925 397 546 397 546 210 337 210 337 296 166 296 166 362 86 361 86 358"/><polygon class="cls-1" points="254 213 89 213 89 294 11 294 11 289 85 289 85 209 254 209 254 213"/><rect class="cls-1" x="33" y="218" width="26" height="36"/><rect class="cls-1" x="11" y="436" width="153" height="4"/><rect class="cls-1" x="415" y="425" width="51" height="44"/><rect class="cls-1" x="415" y="273" width="50" height="50"/><polygon class="cls-1" points="617 64 617 185 724 185 724 125 671 125 671 65 769 65 769 242 617 242 617 299 823 299 823 343 619 343 619 347 827 347 827 295 620 295 620 246 774 246 774 61 668 61 668 129 720 129 720 182 620 182 620 64 617 64"/><polygon class="cls-1" points="817 130 961 130 961 64 819 64 819 19 816 19 816 67 958 67 958 125 817 125 817 130 817 130"/><polygon class="cls-1" points="823 177 823 241 896 241 896 336 1011 336 1011 332 962 332 962 182 898 182 898 185 959 185 959 332 900 332 900 237 827 237 827 177 823 177"/><rect class="cls-1" x="958" y="436" width="23" height="56"/><polygon class="cls-1" points="240 358 337 358 337 522 419 522 419 600 164 600 164 597 415 597 415 526 11 526 11 521 332 521 332 362 245 362 245 446 240 446 240 358"/><polygon class="cls-1" points="650 468 735 468 735 637 740 637 740 468 826 468 826 465 650 465 650 468"/><rect class="cls-1" x="554" y="635" width="38" height="37"/><rect class="cls-1" x="896" y="602" width="42" height="42"/><rect class="cls-1" x="908" y="706" width="102" height="4"/><rect class="cls-1" x="723" y="774" width="287" height="3"/><rect class="cls-1" x="844" y="855" width="166" height="4"/><polygon class="cls-1" points="927 941 763 941 763 859 648 859 648 777 496 777 496 854 579 854 579 937 680 937 680 941 575 941 575 859 493 859 493 774 652 774 652 854 767 854 767 937 927 937 927 941"/><rect class="cls-1" x="493" y="939" width="4" height="82"/><rect class="cls-1" x="415" y="939" width="5" height="82"/><rect class="cls-1" x="190" y="982" width="42" height="16"/><polygon class="cls-1" points="73 981 73 817 143 817 143 884 140 884 140 821 77 821 77 981 73 981"/><polygon class="cls-1" points="269 961 269 817 198 817 198 937 139 937 139 1021 143 1021 143 941 201 941 201 821 266 821 266 961 269 961"/><rect class="cls-1" x="10" y="749" width="131" height="4"/><polygon class="cls-1" points="217 751 334 751 334 939 338 939 338 859 420 859 420 677 492 677 492 710 828 710 828 540 823 540 823 706 653 706 653 597 496 597 496 524 650 524 650 521 553 521 553 469 591 469 591 465 550 465 550 521 493 521 493 600 649 600 649 706 497 706 497 672 91 672 91 598 88 598 88 675 415 675 415 855 338 855 338 747 217 747 217 751"/></g></g></svg>